<svg xmlns="http://www.w3.org/2000/svg" viewBox="0 0 22.94 22.94"><defs><style>.cls-1{fill:#3e3a39;}.cls-2{fill:#f8f8f8;}</style></defs><title>資產 4</title><g id="圖層_2" data-name="圖層 2"><g id="圖層_1-2" data-name="圖層 1"><path class="cls-1" d="M11.47,22.94A11.47,11.47,0,1,1,22.94,11.47,11.48,11.48,0,0,1,11.47,22.94Zm0-22.47a11,11,0,1,0,11,11A11,11,0,0,0,11.47.47Z"/><circle class="cls-1" cx="11.47" cy="11.47" r="9.64"/><path class="cls-2" d="M9.92,17.82h2.47v-6.2h1.73l.18-2.08H12.39V8.36c0-.49.1-.68.57-.68H14.3V5.53H12.59c-1.84,0-2.67.81-2.67,2.36V9.54H8.63v2.11H9.92Z"/></g></g></svg>