<svg xmlns="http://www.w3.org/2000/svg" viewBox="0 0 22.94 22.94"><defs><style>.cls-1{fill:#3e3a39;}.cls-2{fill:#f8f8f8;}</style></defs><title>資產 6</title><g id="圖層_2" data-name="圖層 2"><g id="圖層_1-2" data-name="圖層 1"><path class="cls-1" d="M11.47,22.94A11.47,11.47,0,1,1,22.94,11.47,11.48,11.48,0,0,1,11.47,22.94Zm0-22.47a11,11,0,1,0,11,11A11,11,0,0,0,11.47.47Z"/><circle class="cls-1" cx="11.47" cy="11.47" r="9.64"/><path class="cls-2" d="M11.47,5.53c-3.54,0-6.41,2.33-6.41,5.2,0,2.58,2.28,4.73,5.36,5.14.21,0,.49.14.57.32a1.41,1.41,0,0,1,0,.58s-.08.45-.09.54-.13.64.55.35a20.66,20.66,0,0,0,5-3.72,4.65,4.65,0,0,0,1.38-3.21C17.89,7.86,15,5.53,11.47,5.53ZM9,12.44H7.68a.33.33,0,0,1-.33-.33V9.56a.34.34,0,1,1,.67,0v2.21H9a.34.34,0,1,1,0,.67Zm1.32-.33a.34.34,0,0,1-.67,0V9.56a.34.34,0,1,1,.67,0Zm3.07,0a.33.33,0,0,1-.23.31l-.11,0a.34.34,0,0,1-.27-.13l-1.31-1.78v1.58a.34.34,0,0,1-.67,0V9.56A.32.32,0,0,1,11,9.24a.22.22,0,0,1,.11,0,.37.37,0,0,1,.27.13l1.3,1.78V9.56a.34.34,0,0,1,.68,0Zm2.06-1.62a.34.34,0,0,1,.33.34.34.34,0,0,1-.33.34h-.94v.6h.94a.34.34,0,0,1,0,.67H14.13a.33.33,0,0,1-.33-.33V9.56a.34.34,0,0,1,.33-.34h1.28a.34.34,0,0,1,0,.67h-.94v.6Z"/></g></g></svg>