<svg xmlns="http://www.w3.org/2000/svg" viewBox="0 0 22.95 22.94"><defs><style>.cls-1{fill:#3e3a39;}.cls-2{fill:#f8f8f8;}</style></defs><title>資產 10</title><g id="圖層_2" data-name="圖層 2"><g id="圖層_1-2" data-name="圖層 1"><path class="cls-1" d="M11.47,22.94A11.47,11.47,0,1,1,23,11.47,11.48,11.48,0,0,1,11.47,22.94Zm0-22.47a11,11,0,1,0,11,11A11,11,0,0,0,11.47.47Z"/><path class="cls-1" d="M21.11,11.47a9.64,9.64,0,1,1-9.64-9.64A9.63,9.63,0,0,1,21.11,11.47Z"/><path class="cls-2" d="M11.48,7.11c1.49,0,1.67,0,2.25,0a2.91,2.91,0,0,1,1,.19,1.88,1.88,0,0,1,1.06,1.06,3.37,3.37,0,0,1,.19,1c0,.59,0,.76,0,2.25s0,1.67,0,2.26a3.37,3.37,0,0,1-.19,1A1.88,1.88,0,0,1,14.77,16a2.91,2.91,0,0,1-1,.19c-.58,0-.76,0-2.25,0s-1.66,0-2.25,0a3,3,0,0,1-1-.19,1.7,1.7,0,0,1-.64-.42A1.72,1.72,0,0,1,7.14,15a2.84,2.84,0,0,1-.19-1c0-.59,0-.77,0-2.26s0-1.66,0-2.25a2.84,2.84,0,0,1,.19-1,1.72,1.72,0,0,1,.41-.64,1.7,1.7,0,0,1,.64-.42,3,3,0,0,1,1-.19c.59,0,.76,0,2.25,0m0-1c-1.51,0-1.7,0-2.3,0a4.14,4.14,0,0,0-1.35.26,2.93,2.93,0,0,0-1,.65A2.72,2.72,0,0,0,6.2,8a4.15,4.15,0,0,0-.26,1.36c0,.59,0,.78,0,2.29s0,1.71,0,2.3a4.15,4.15,0,0,0,.26,1.36,2.72,2.72,0,0,0,.64,1,2.93,2.93,0,0,0,1,.65,4.16,4.16,0,0,0,1.35.25c.6,0,.79,0,2.3,0s1.71,0,2.3,0A4.11,4.11,0,0,0,15.13,17a2.83,2.83,0,0,0,1-.65,2.72,2.72,0,0,0,.64-1A3.9,3.9,0,0,0,17,14c0-.59,0-.78,0-2.3s0-1.7,0-2.29A3.9,3.9,0,0,0,16.76,8a2.72,2.72,0,0,0-.64-1,2.83,2.83,0,0,0-1-.65,4.08,4.08,0,0,0-1.35-.26c-.59,0-.78,0-2.3,0"/><path class="cls-2" d="M11.48,8.81a2.87,2.87,0,1,0,2.86,2.86,2.86,2.86,0,0,0-2.86-2.86m0,4.72a1.86,1.86,0,1,1,1.86-1.86,1.86,1.86,0,0,1-1.86,1.86"/><path class="cls-2" d="M15.13,8.7A.67.67,0,1,1,14.46,8a.67.67,0,0,1,.67.67"/></g></g></svg>