<svg id="圖層_2" data-name="圖層 2" xmlns="http://www.w3.org/2000/svg" viewBox="0 0 100.21 29.89"><defs><style>.cls-1{fill:#3e3a39;}.cls-2{fill:#eee;}</style></defs><title>nav1_hover</title><path id="current" class="cls-1" d="M87.36,18.41h95.23a2.47,2.47,0,0,1,2.49,2.49V45.82a2.47,2.47,0,0,1-2.49,2.49H87.36a2.47,2.47,0,0,1-2.49-2.49V20.9A2.47,2.47,0,0,1,87.36,18.41Z" transform="translate(-84.87 -18.41)"/><path class="cls-2" d="M132.12,31.8v.56c0,.06,0,.08.09.07a12.83,12.83,0,0,1,2.88-.35,6.35,6.35,0,0,1,2.44.44,4,4,0,0,1,1.75,1.33,3.41,3.41,0,0,1,.66,2.1,4.79,4.79,0,0,1-.19,1.4,3.94,3.94,0,0,1-.61,1.21,4,4,0,0,1-1.17,1,7.05,7.05,0,0,1-1.81.69,15.8,15.8,0,0,1-1.7.24.73.73,0,0,1-.47-.11.79.79,0,0,1-.31-.39l-.54-1.53a.4.4,0,0,1,.05-.38.41.41,0,0,1,.34-.18,10.5,10.5,0,0,0,1.53-.12,3.51,3.51,0,0,0,1.63-.64,1.47,1.47,0,0,0,.61-1.22,1.38,1.38,0,0,0-.6-1.18,2.77,2.77,0,0,0-1.64-.43,11.38,11.38,0,0,0-2.8.36c-.06,0-.08,0-.07.09,0,1.65.07,2.61.07,2.89a3.67,3.67,0,0,1-.54,2.31,1.85,1.85,0,0,1-1.52.64,4.85,4.85,0,0,1-3.55-1.68,2.63,2.63,0,0,1-.67-1.72A3.21,3.21,0,0,1,127,35a8.56,8.56,0,0,1,2.69-1.8.11.11,0,0,0,.06-.11c0-.28,0-.69,0-1.23V31s0-.06-.07-.06H129c-.82,0-1.44,0-1.86-.05a.56.56,0,0,1-.43-.19.66.66,0,0,1-.17-.44l0-1.26a.52.52,0,0,1,.18-.4.47.47,0,0,1,.41-.13c.49,0,1.11.05,1.84.05l.73,0s.07,0,.07-.06v-1c0-.24,0-.6-.05-1.06a.5.5,0,0,1,.12-.43.54.54,0,0,1,.39-.17h1.61a.48.48,0,0,1,.39.18.54.54,0,0,1,.14.42c0,.38-.08.73-.1,1l-.05.78c0,.06,0,.08.07.07a17.84,17.84,0,0,0,2.26-.42.49.49,0,0,1,.4.09.43.43,0,0,1,.18.36l0,1.35a.7.7,0,0,1-.16.46.62.62,0,0,1-.4.25c-.68.12-1.47.24-2.38.35a.07.07,0,0,0-.08.08C132.13,31,132.12,31.34,132.12,31.8Zm-2.74,6a.49.49,0,0,0,.36-.12.84.84,0,0,0,.13-.54c0-.13,0-.63,0-1.5q0-.07-.06,0c-.86.5-1.28,1-1.28,1.46a.64.64,0,0,0,.3.51A1,1,0,0,0,129.38,37.82Zm7-8a.61.61,0,0,1-.3-.33,1,1,0,0,1,0-.17.53.53,0,0,1,.06-.26l.54-1a.61.61,0,0,1,.36-.3.57.57,0,0,1,.18,0,.54.54,0,0,1,.27.07c1.27.62,2.36,1.2,3.27,1.76a.62.62,0,0,1,.28.36,1,1,0,0,1,0,.17.6.6,0,0,1-.1.3l-.62,1a.46.46,0,0,1-.34.27h-.12a.61.61,0,0,1-.3-.08A34.7,34.7,0,0,0,136.42,29.82Z" transform="translate(-84.87 -18.41)"/><path class="cls-2" d="M153.72,30.9a.61.61,0,0,1,.43.17.55.55,0,0,1,.17.41v1.4s0,.08.07.08h3.13a.57.57,0,0,1,.41.16.54.54,0,0,1,.17.42v1.14a.57.57,0,0,1-.17.43.58.58,0,0,1-.41.17h-3.13s-.07,0-.07.07v5.36a.57.57,0,0,1-.17.42.6.6,0,0,1-.43.16h-1.38a.6.6,0,0,1-.42-.16.54.54,0,0,1-.17-.42V35.35a.06.06,0,0,0-.07-.07h-3a.08.08,0,0,0-.08.07,7.71,7.71,0,0,1-.33,1.56,8,8,0,0,1-.66,1.49,6.07,6.07,0,0,1-1.16,1.44,8,8,0,0,1-1.73,1.22.68.68,0,0,1-.48.06.89.89,0,0,1-.42-.24,9.94,9.94,0,0,0-1-1,.33.33,0,0,1-.13-.31.32.32,0,0,1,.2-.28A5.62,5.62,0,0,0,146,35.35c0-.05,0-.07,0-.07h-2.91a.57.57,0,0,1-.42-.17.58.58,0,0,1-.18-.43V33.54a.54.54,0,0,1,.18-.42.57.57,0,0,1,.42-.16h3s.06,0,.06-.08V31.61a.53.53,0,0,1,.18-.4.58.58,0,0,1,.42-.18h1.3a.58.58,0,0,1,.42.18.52.52,0,0,1,.17.4v1.27a.07.07,0,0,0,.07.08h2.94a.07.07,0,0,0,.07-.08v-1.4a.52.52,0,0,1,.17-.41.61.61,0,0,1,.42-.17Zm-10,.17a.56.56,0,0,1-.43-.15.73.73,0,0,1-.22-.4l-.15-1.36a.56.56,0,0,1,.15-.43.51.51,0,0,1,.39-.17l2.12,0a.15.15,0,0,0,.12-.07,22.06,22.06,0,0,0,1.42-2.89.71.71,0,0,1,.32-.34.68.68,0,0,1,.33-.09l.15,0,1.64.36a.39.39,0,0,1,.31.24.42.42,0,0,1,0,.39c-.47.81-.93,1.55-1.4,2.23,0,0,0,.07,0,.07l4.21-.14h0a.06.06,0,0,0,0,0c-.27-.22-.54-.44-.83-.66a.43.43,0,0,1-.16-.35.41.41,0,0,1,.19-.33l1-.65a.85.85,0,0,1,.48-.17.87.87,0,0,1,.5.19,20.69,20.69,0,0,1,3.87,3.45.56.56,0,0,1,.11.43.55.55,0,0,1-.24.37l-1.23.81a.57.57,0,0,1-.45.08.63.63,0,0,1-.38-.23c-.18-.24-.37-.48-.58-.71a.17.17,0,0,0-.14,0C150.76,30.68,147,30.9,143.71,31.07Z" transform="translate(-84.87 -18.41)"/><path class="cls-2" d="M168.05,25.12a.56.56,0,0,1,.42.18.54.54,0,0,1,.18.42v5.16q0,.09.06.09h4.72a.6.6,0,0,1,.6.58v9.13a.53.53,0,0,1-.18.4.56.56,0,0,1-.42.18H172a.55.55,0,0,1-.41-.18.56.56,0,0,1-.17-.4c0-.06,0-.09-.08-.09h-10.2a.6.6,0,0,1-.42-.16.54.54,0,0,1-.17-.42V38.72a.54.54,0,0,1,.17-.41.61.61,0,0,1,.42-.17h10.2c.05,0,.08,0,.08-.09V37c0-.06,0-.08-.08-.08h-9.2a.55.55,0,0,1-.41-.18.58.58,0,0,1-.17-.41V35.08a.56.56,0,0,1,.17-.4.55.55,0,0,1,.41-.18h9.2a.07.07,0,0,0,.08-.08v-.9a.07.07,0,0,0-.08-.08h-9.78a.58.58,0,0,1-.43-.18.56.56,0,0,1-.17-.4V31.55a.58.58,0,0,1,.17-.41.57.57,0,0,1,.43-.17h4.33s.07,0,.07-.09V25.72a.6.6,0,0,1,.59-.6ZM164.48,29a.55.55,0,0,1,0,.47.56.56,0,0,1-.33.31l-1.31.55a.49.49,0,0,1-.44,0,.52.52,0,0,1-.28-.33,15.42,15.42,0,0,0-1.39-2.89.46.46,0,0,1,0-.41.45.45,0,0,1,.27-.3l1.16-.45a.72.72,0,0,1,.5,0,.74.74,0,0,1,.4.29A14.93,14.93,0,0,1,164.48,29Zm6.91-2.87a.63.63,0,0,1,.29-.35.6.6,0,0,1,.44-.05l1.66.47a.43.43,0,0,1,.31.26.53.53,0,0,1,0,.2.54.54,0,0,1,0,.22c-.62,1.26-1.19,2.33-1.72,3.22a.76.76,0,0,1-.39.31.69.69,0,0,1-.49,0l-1.1-.36a.55.55,0,0,1-.3-.3.49.49,0,0,1,0-.41A20.25,20.25,0,0,0,171.39,26.15Z" transform="translate(-84.87 -18.41)"/><path class="cls-2" d="M107.27,31a.46.46,0,0,1,.43-.35c.37,0,.42.17.49.33s.18.64-.11.88a.74.74,0,0,1-1,0C107,31.54,107.23,31.2,107.27,31Z" transform="translate(-84.87 -18.41)"/><path class="cls-2" d="M106,31a2.3,2.3,0,0,1-.32-.38,5,5,0,0,0-1.31-1.37c-.54-.35,0-1.22.52-.87a5.1,5.1,0,0,1,1.33,1.29l.27.34a1.69,1.69,0,0,1,.5-.36c0-.36-.11-.73-.14-1,0-.59-.75-1.13-1.43-1.6a4,4,0,0,0-2.36-.95,4.68,4.68,0,0,0-1.94.82,7.75,7.75,0,0,1,1.38,2.3,4.15,4.15,0,0,0,2.25,2.32,7,7,0,0,0,1.12.33A1.76,1.76,0,0,1,106,31Z" transform="translate(-84.87 -18.41)"/><path class="cls-2" d="M114.25,27.75a6.55,6.55,0,0,0-1.53-.13c-1.41,0-1.64.2-1.64.2a7.22,7.22,0,0,0-2.17,2.09,2,2,0,0,1,.3.43,5.85,5.85,0,0,1,.9-.55c.58-.28,1.09.59.5.87a8,8,0,0,0-1.17.75,1.63,1.63,0,0,1,0,.31,11.43,11.43,0,0,0,3.86-.85,12.71,12.71,0,0,0,2.9-2.21A4.18,4.18,0,0,0,114.25,27.75Z" transform="translate(-84.87 -18.41)"/><path class="cls-2" d="M118.43,33.07c-.81.26-1.62.53-2.44.76-1.47.42-2.92.9-4.37,1.4-.62.22-.88-.76-.27-1,1.54-.53,3.09-1,4.67-1.48.6-.16,1.19-.35,1.78-.55-1-.2-2.29-.38-3.74-.55l-.18.11a12.67,12.67,0,0,1-4.73,1.05h-.09a1.09,1.09,0,0,1-.4-.07,2,2,0,0,1-1.07.31,1.87,1.87,0,0,1-1-.25l-.22.07-.34,0a3.84,3.84,0,0,1-1.32-.29l-.29-.1a4.76,4.76,0,0,1-2-1.42l-.23.06s-4.11,1-5.09,1.32a2.5,2.5,0,0,0-1.25.81c0,.38,0,.8,0,1.22,0,1.72.27,3.53.27,3.53,9.45,1.54,13.5,1.76,13.5,1.76h.07a8.52,8.52,0,0,0,0-1.13c0-.65,1-.64,1,0a8.23,8.23,0,0,1,0,.86c6.15-2,7.77-3.18,7.77-3.18V33.91A5.77,5.77,0,0,0,118.43,33.07Zm-10.28,2.31a31.8,31.8,0,0,1-5.05-.7c-1.72-.31-3.44-.66-5.17-.9-.64-.09-.37-1.06.27-1,1.73.24,3.45.59,5.17.9a29.56,29.56,0,0,0,4.78.66A.51.51,0,0,1,108.15,35.38Z" transform="translate(-84.87 -18.41)"/></svg>