<svg id="圖層_3" data-name="圖層 3" xmlns="http://www.w3.org/2000/svg" viewBox="0 0 100.21 29.89"><defs><style>.cls-1{fill:#3e3a39;}.cls-2{fill:#eee;}</style></defs><title>nav2</title><path id="current" class="cls-1" d="M58.35,15.24h95.23a2.47,2.47,0,0,1,2.49,2.49V42.65a2.47,2.47,0,0,1-2.49,2.49H58.35a2.47,2.47,0,0,1-2.49-2.49V17.73A2.47,2.47,0,0,1,58.35,15.24Z" transform="translate(-55.86 -15.24)"/><path class="cls-2" d="M115,32.23a.35.35,0,0,1,.47,0l1.09.93a.43.43,0,0,1,.15.37.42.42,0,0,1-.2.33c-.55.32-1.26.71-2.12,1.18,0,0,0,0,0,0s0,0,0,0a16.21,16.21,0,0,0,2.75.59.28.28,0,0,1,.24.2.34.34,0,0,1,0,.32,6.8,6.8,0,0,0-.42.56c-.14.23-.28.43-.4.62a1,1,0,0,1-.36.36.69.69,0,0,1-.34.09l-.14,0a10.81,10.81,0,0,1-5.35-2.49h0s0,0,0,0l0,1.16a.57.57,0,0,1-.15.43.72.72,0,0,1-.42.22q-2.51.24-5.86.53a.64.64,0,0,1-.43-.14.57.57,0,0,1-.23-.39l-.17-1.1a.54.54,0,0,1,.12-.42.5.5,0,0,1,.38-.19c.48,0,.82-.06,1-.09,0,0,.06,0,.06-.08V27.63s0-.05-.06,0l-1,.48a.64.64,0,0,1-.47,0,.75.75,0,0,1-.36-.3c-.1-.17-.22-.34-.35-.53s-.28-.38-.41-.55a.39.39,0,0,1-.1-.27.45.45,0,0,1,0-.11.41.41,0,0,1,.25-.28,18.29,18.29,0,0,0,3.36-1.81A15.18,15.18,0,0,0,108,22.12a1.29,1.29,0,0,1,1-.45h1.33a1.35,1.35,0,0,1,1,.43,14.86,14.86,0,0,0,6.21,3.84.32.32,0,0,1,.25.25.52.52,0,0,1,0,.11.38.38,0,0,1-.09.25c-.27.35-.57.76-.88,1.25a.75.75,0,0,1-.39.29.64.64,0,0,1-.47,0L115,27.6s-.06,0-.06,0v4.58S115,32.23,115,32.23Zm-3.92-5.89c0,.05,0,.08.09.08h1.72s0,0,0,0h0a15.37,15.37,0,0,1-3.09-2.51s-.06,0-.1,0a16.39,16.39,0,0,1-3,2.51s0,0,0,0h1.76c.06,0,.09,0,.09-.08v-.4a.54.54,0,0,1,.17-.42.55.55,0,0,1,.41-.18h1.39a.55.55,0,0,1,.41.18.54.54,0,0,1,.17.42Zm-3.93,2s-.07,0-.07.09v.43s0,.06.07.06h5.25c.05,0,.08,0,.08-.06V28.4c0-.06,0-.09-.08-.09Zm-.07,2.84c0,.06,0,.09.07.09h5.25c.05,0,.08,0,.08-.09v-.46c0-.05,0-.07-.08-.07h-5.25s-.07,0-.07.07Zm.07,2s-.07,0-.07.08v1.86c0,.06,0,.08.09.08.31,0,.75,0,1.34-.11l1.34-.1c.06,0,.07,0,0,0a9.53,9.53,0,0,1-1.23-1.7.12.12,0,0,0-.12-.06Zm6.49,0s0,0,0,0h-2.48s0,0,0,0a5,5,0,0,0,.92.81.15.15,0,0,0,.13,0C112.47,33.86,112.94,33.58,113.62,33.16Z" transform="translate(-55.86 -15.24)"/><path class="cls-2" d="M124.36,24.94a.54.54,0,0,1,.42.18.58.58,0,0,1,.16.42v.75a.59.59,0,0,1-.16.41.57.57,0,0,1-.42.17h-5a.57.57,0,0,1-.41-.17.6.6,0,0,1-.17-.41v-.75a.59.59,0,0,1,.17-.42.54.54,0,0,1,.41-.18Zm-.55,7.19a.61.61,0,0,1,.43.17.57.57,0,0,1,.17.41V36.8a.56.56,0,0,1-.17.4.58.58,0,0,1-.43.18h-2.29s-.08,0-.08.06a.57.57,0,0,1-.17.42.54.54,0,0,1-.39.17H120a.54.54,0,0,1-.41-.18.61.61,0,0,1-.17-.42V32.71a.58.58,0,0,1,.58-.58Zm0-4.75a.58.58,0,0,1,.43.18.56.56,0,0,1,.17.4v.67a.57.57,0,0,1-.17.41.61.61,0,0,1-.43.17h-3.65a.58.58,0,0,1-.58-.58V28a.56.56,0,0,1,.17-.4.54.54,0,0,1,.41-.18Zm-3.65,4.19a.54.54,0,0,1-.41-.18.57.57,0,0,1-.17-.42v-.65a.61.61,0,0,1,.17-.42.54.54,0,0,1,.41-.18h3.65a.58.58,0,0,1,.43.18.61.61,0,0,1,.17.42V31a.57.57,0,0,1-.17.42.58.58,0,0,1-.43.18Zm3.6-8.95a.57.57,0,0,1,.42.17.6.6,0,0,1,.16.43v.64a.6.6,0,0,1-.16.43.57.57,0,0,1-.42.17h-3.5a.6.6,0,0,1-.41-.17.61.61,0,0,1-.17-.43v-.64a.61.61,0,0,1,.17-.43.6.6,0,0,1,.41-.17ZM122.4,34.11c0-.06,0-.09-.08-.09h-.8s-.08,0-.08.09V35.4c0,.05,0,.07.08.07h.8c.05,0,.08,0,.08-.07Zm11.27-5.78s0,.07,0,.07h.61a.57.57,0,0,1,.42.17.6.6,0,0,1,.16.42v1a.55.55,0,0,1-.58.58h-8.93a.57.57,0,0,1-.42-.16.54.54,0,0,1-.18-.42V29a.6.6,0,0,1,.6-.59h.5s.08,0,.07-.07a9.39,9.39,0,0,0-.37-1.48.61.61,0,0,1,0-.44.45.45,0,0,1,.33-.25l.46-.12a.72.72,0,0,1,.48,0,.57.57,0,0,1,.32.36,10.16,10.16,0,0,1,.33,1.11.57.57,0,0,1-.07.46.63.63,0,0,1-.38.27l-.36.1v0h1s.06,0,.06-.07V26c0-.05,0-.07-.06-.07h-2a.54.54,0,0,1-.42-.18.57.57,0,0,1-.16-.42v-.81a.56.56,0,0,1,.58-.58h1.14c.05,0,.07,0,.05-.07a5.33,5.33,0,0,0-.23-.63.53.53,0,0,1,0-.41.47.47,0,0,1,.31-.27l.83-.22a.79.79,0,0,1,.5,0,.65.65,0,0,1,.36.33,6.72,6.72,0,0,1,.38.95c0,.14,0,.23-.15.28h1.88a.1.1,0,0,1-.07-.14,10.59,10.59,0,0,0,.48-1.09.65.65,0,0,1,.3-.35.56.56,0,0,1,.3-.08H132l1.06.29a.46.46,0,0,1,.3.26.47.47,0,0,1,0,.4c-.17.3-.3.51-.38.63s0,.07,0,.07h1.15a.6.6,0,0,1,.41.17.58.58,0,0,1,.17.41v.81a.6.6,0,0,1-.58.6H133s0,0,0,0l1,.28a.5.5,0,0,1,.32.27.54.54,0,0,1,0,.43C134,27.71,133.74,28.19,133.67,28.33Zm-7,9.89a.54.54,0,0,1-.41-.17.58.58,0,0,1-.17-.41v-6a.61.61,0,0,1,.17-.42.54.54,0,0,1,.41-.17h6.74a.56.56,0,0,1,.41.17.61.61,0,0,1,.17.42v5.95a.56.56,0,0,1-.17.4.57.57,0,0,1-.41.18H132a.33.33,0,0,1-.23-.1.3.3,0,0,1-.1-.23s0,0,0,0h-3.26a0,0,0,0,0-.05.05.4.4,0,0,1-.11.27.39.39,0,0,1-.29.11Zm5-5.21s0-.06-.09-.06H128.4q-.09,0-.09.06v.47c0,.05,0,.08.09.08h3.18c.06,0,.09,0,.09-.08Zm-3.36,2.79c0,.06,0,.08.09.08h3.18c.06,0,.09,0,.09-.08v-.46a.08.08,0,0,0-.09-.09H128.4a.08.08,0,0,0-.09.09Zm1.38-9.91a.06.06,0,0,0-.07.07v2.37a.07.07,0,0,0,.07.07h.38c.06,0,.09,0,.09-.07V26c0-.05,0-.07-.09-.07ZM133,28.4a0,0,0,0,0,0,0l-.41-.13a.53.53,0,0,1-.33-.29.5.5,0,0,1,0-.43,11.59,11.59,0,0,0,.43-1.57c0-.05,0-.07-.05-.07h-.55c-.05,0-.08,0-.08.07v2.37a.07.07,0,0,0,.08.07Z" transform="translate(-55.86 -15.24)"/><path class="cls-2" d="M93.71,26.61a2.63,2.63,0,0,0-2.45-2.82l-4.15-.29a.51.51,0,0,0,.13-.3v0c0-.4-.48-.76-1.14-.81h0c-.66,0-1.21.24-1.24.64v0a.48.48,0,0,0,.08.31l-4.17-.29a2.64,2.64,0,0,0-2.82,2.45l0,.68,15.78,1.1Z" transform="translate(-55.86 -15.24)"/><path class="cls-2" d="M93.94,28.77H77.88a1,1,0,0,0-1,.95v0a1,1,0,0,0,1,1H78v4.41a2.64,2.64,0,0,0,2.64,2.64H91.19a2.65,2.65,0,0,0,2.65-2.64V30.7h.1a1,1,0,0,0,1-1v0A1,1,0,0,0,93.94,28.77ZM81.12,36.3a1.65,1.65,0,0,1-1.66-1.65V32.19a.55.55,0,0,1,.55-.55.55.55,0,0,1,.55.55v2.46a.56.56,0,0,0,.56.55.55.55,0,0,1,0,1.1Z" transform="translate(-55.86 -15.24)"/></svg>