<svg id="圖層_4" data-name="圖層 4" xmlns="http://www.w3.org/2000/svg" viewBox="0 0 100.21 29.89"><defs><style>.cls-1{fill:#3e3a39;}.cls-2{fill:#eee;}</style></defs><title>nav3</title><path id="current" class="cls-1" d="M52.81,17.24H148a2.47,2.47,0,0,1,2.49,2.49V44.65A2.47,2.47,0,0,1,148,47.14H52.81a2.47,2.47,0,0,1-2.49-2.49V19.73A2.47,2.47,0,0,1,52.81,17.24Z" transform="translate(-50.32 -17.24)"/><path class="cls-2" d="M95.8,30.71a.58.58,0,0,1,.42.18.52.52,0,0,1,.17.4V36a.38.38,0,0,0,0,.13,2.71,2.71,0,0,0,1.3,1.08,6.45,6.45,0,0,0,2.12.4c.57,0,1.28,0,2.12,0l1.58,0c1.56,0,2.93-.08,4.1-.17a.34.34,0,0,1,.32.15.37.37,0,0,1,.08.22.31.31,0,0,1,0,.13,11.82,11.82,0,0,0-.44,1.4.85.85,0,0,1-.26.42.7.7,0,0,1-.45.19c-1.39.06-2.72.08-4,.08-1.09,0-2.13,0-3.1-.06a8.66,8.66,0,0,1-2.6-.46,4.64,4.64,0,0,1-1.85-1.3s-.07,0-.1,0c-.65.58-1.26,1.09-1.81,1.54a.48.48,0,0,1-.4.09.46.46,0,0,1-.31-.25L92,38.07a.86.86,0,0,1,0-.27.75.75,0,0,1,0-.2.57.57,0,0,1,.28-.36c.6-.36,1.14-.71,1.63-1.05a.16.16,0,0,0,0-.11v-3S94,33,93.9,33H92.81a.55.55,0,0,1-.41-.18.57.57,0,0,1-.17-.42v-1.1a.56.56,0,0,1,.17-.4.55.55,0,0,1,.41-.18Zm.61-4.11a.52.52,0,0,1,.14.43.54.54,0,0,1-.22.4l-1.06.88a.53.53,0,0,1-.42.11.58.58,0,0,1-.38-.21,14.74,14.74,0,0,0-1.86-1.83.5.5,0,0,1-.17-.38.42.42,0,0,1,.19-.37l.91-.74a.71.71,0,0,1,.46-.17h0a.72.72,0,0,1,.45.15A16,16,0,0,1,96.41,26.6ZM98.09,29a.57.57,0,0,1,.17-.42.6.6,0,0,1,.43-.16h1.85a.09.09,0,0,0,.1-.08,2.82,2.82,0,0,0,.09-.5c0-.05,0-.07,0-.07H97.44a.55.55,0,0,1-.41-.17.61.61,0,0,1-.17-.43V26.4A.58.58,0,0,1,97,26a.52.52,0,0,1,.41-.17h1.41c.05,0,.06,0,0-.07a2.42,2.42,0,0,0-.24-.42.42.42,0,0,1,0-.39.41.41,0,0,1,.28-.3l.83-.3a.72.72,0,0,1,.5,0,.71.71,0,0,1,.41.28,4.76,4.76,0,0,1,.68,1.16s0,.05,0,.07h1.63s.07,0,.1-.07q.32-.6.51-1.08a.77.77,0,0,1,.32-.37.73.73,0,0,1,.33-.08l.13,0,1.33.26a.44.44,0,0,1,.3.25.38.38,0,0,1,0,.37l-.41.63s0,.07,0,.07h1.71a.57.57,0,0,1,.43.17.58.58,0,0,1,.17.41v.79a.58.58,0,0,1-.6.6h-3.77s-.07,0-.1.07a1.05,1.05,0,0,0-.12.22,1.43,1.43,0,0,1-.16.29c0,.05,0,.07,0,.07H106a.57.57,0,0,1,.41.16.54.54,0,0,1,.17.42v7.27a.54.54,0,0,1-.17.42.57.57,0,0,1-.41.16H98.69a.6.6,0,0,1-.43-.16.57.57,0,0,1-.17-.42Zm6,1.74c.06,0,.08,0,.08-.08v-.42c0-.05,0-.08-.08-.08H100.5s-.07,0-.07.08v.42c0,.06,0,.08.07.08Zm0,2.18c.06,0,.08,0,.08-.09v-.41c0-.06,0-.08-.08-.08H100.5s-.07,0-.07.08v.41c0,.06,0,.09.07.09Zm0,2.19c.06,0,.08,0,.08-.07v-.43c0-.05,0-.08-.08-.08H100.5s-.07,0-.07.08v.43s0,.07.07.07Z" transform="translate(-50.32 -17.24)"/><path class="cls-2" d="M124.67,36.08a.53.53,0,0,1-.18.4.54.54,0,0,1-.42.18h-3.9s0,0,0,0v0c1.62.57,3,1.13,4.27,1.68a.3.3,0,0,1,.18.27.29.29,0,0,1-.15.29l-1.58,1a.89.89,0,0,1-.51.17,1.05,1.05,0,0,1-.5-.14,30.21,30.21,0,0,0-3.68-1.67.31.31,0,0,1-.22-.26.32.32,0,0,1,.12-.32l1.19-1s0,0,0,0h-4.51s0,0,0,0,0,0,0,0l1.21,1a.37.37,0,0,1,.15.34.34.34,0,0,1-.2.29,29.92,29.92,0,0,1-4.5,1.79,1,1,0,0,1-.28,0,.83.83,0,0,1-.65-.33c-.3-.37-.6-.71-.91-1a.34.34,0,0,1-.09-.33.33.33,0,0,1,.24-.24,21.65,21.65,0,0,0,4-1.54,0,0,0,0,0,0,0s0,0,0,0H110a.58.58,0,0,1-.42-.18.56.56,0,0,1-.17-.4V35a.56.56,0,0,1,.17-.4.58.58,0,0,1,.42-.18h14a.54.54,0,0,1,.42.18.53.53,0,0,1,.18.4Zm-2.94-11.39a.57.57,0,0,1,.41.17.61.61,0,0,1,.17.42v7.94a.58.58,0,0,1-.17.41.57.57,0,0,1-.41.17h-9.35a.57.57,0,0,1-.41-.17.58.58,0,0,1-.17-.41V25.28a.61.61,0,0,1,.17-.42.57.57,0,0,1,.41-.17Zm-2.06,2.52c.06,0,.08,0,.08-.08V26.6c0-.05,0-.07-.08-.07h-5.36c-.06,0-.09,0-.09.07v.53c0,.05,0,.08.09.08Zm0,2.37c.06,0,.08,0,.08-.06V29c0-.06,0-.09-.08-.09h-5.36a.08.08,0,0,0-.09.09v.53s0,.06.09.06Zm0,2.39c.06,0,.08,0,.08-.08v-.53s0-.07-.08-.07h-5.36c-.06,0-.09,0-.09.07v.53c0,.06,0,.08.09.08Z" transform="translate(-50.32 -17.24)"/><path class="cls-2" d="M77.78,28.65c.67-.83,1.33-1.69,2-2.54l.69-.9c.21-.27.42-.55.62-.84a.69.69,0,0,0-.16-1,.61.61,0,0,0-.46-.22.64.64,0,0,0-.48.25l-.86.94c-.67.72-1.33,1.44-2,2.18q-1.64,1.9-3.24,3.86L69,36.29c-.64.76-1.29,1.53-1.94,2.27a1,1,0,0,0-.22.77.65.65,0,0,1,0,.14l0,.25L67,40a1.54,1.54,0,0,0,.35.31l.13.06h.13a.72.72,0,0,0,.56-.29c.12-.13.23-.27.34-.4l7.15-8.52C76.4,30.32,77.09,29.49,77.78,28.65Z" transform="translate(-50.32 -17.24)"/><path class="cls-2" d="M85.17,24.61a1.1,1.1,0,0,0-.39-.44l-.14-.1h-.16a.74.74,0,0,0-.54.3l-.54.72c-.48.63-1,1.26-1.42,1.91q-1.65,2.4-3.29,4.82L72.43,41a1.41,1.41,0,0,0-.18.46,1.29,1.29,0,0,0,0,.34.92.92,0,0,0,.27.62.89.89,0,0,0,.59.27h.13l.28-.17a.93.93,0,0,0,.18-.2l2.13-3.1,2.68-3.92.95-1.41.24-.37c.08-.13.16-.26.25-.39l.42-.61.5-.72c.2-.28.4-.56.63-.91.38-.56.76-1.12,1.12-1.69.48-.75,1-1.5,1.43-2.26l.33-.52c.24-.37.47-.75.7-1.12A.71.71,0,0,0,85.17,24.61Z" transform="translate(-50.32 -17.24)"/></svg>