<svg id="圖層_5" data-name="圖層 5" xmlns="http://www.w3.org/2000/svg" viewBox="0 0 100.21 29.89"><defs><style>.cls-1{fill:#3e3a39;}.cls-2{fill:#eee;}</style></defs><title>nav4_hover</title><path id="current" class="cls-1" d="M53.42,15.24h95.23a2.47,2.47,0,0,1,2.49,2.49V42.65a2.47,2.47,0,0,1-2.49,2.49H53.42a2.47,2.47,0,0,1-2.49-2.49V17.73A2.47,2.47,0,0,1,53.42,15.24Z" transform="translate(-50.93 -15.24)"/><path class="cls-2" d="M92.57,36.9a7,7,0,0,1-2.25-.37,6.83,6.83,0,0,1-2-1.06.57.57,0,0,1-.21-.47.58.58,0,0,1,.13-.38l1-1.18a.53.53,0,0,1,.39-.2.67.67,0,0,1,.44.1,4.56,4.56,0,0,0,2.62.95A2.19,2.19,0,0,0,93.86,34a.94.94,0,0,0,.42-.82.85.85,0,0,0-.35-.72,7.25,7.25,0,0,0-1.21-.61l-.22-.1-1.63-.68A4.55,4.55,0,0,1,89,29.75a3.27,3.27,0,0,1-.72-2.15,3.43,3.43,0,0,1,1.29-2.71,4.87,4.87,0,0,1,3.29-1.11A5.72,5.72,0,0,1,96.57,25a.57.57,0,0,1,.21.42.68.68,0,0,1-.13.45l-.78,1a.57.57,0,0,1-.4.23A.65.65,0,0,1,95,27a3.93,3.93,0,0,0-2.12-.65,1.93,1.93,0,0,0-1.11.28.9.9,0,0,0-.4.78.69.69,0,0,0,.09.36,1.21,1.21,0,0,0,.21.28,1.45,1.45,0,0,0,.39.25,3.65,3.65,0,0,0,.46.22l.59.24a.52.52,0,0,1,.18.07l1.58.63A3.52,3.52,0,0,1,97.38,33a3.72,3.72,0,0,1-.32,1.51,4,4,0,0,1-.93,1.26,4.52,4.52,0,0,1-1.53.86A6.22,6.22,0,0,1,92.57,36.9Z" transform="translate(-50.93 -15.24)"/><path class="cls-2" d="M100.09,36.67a.58.58,0,0,1-.43-.18.61.61,0,0,1-.17-.42V24.61a.61.61,0,0,1,.17-.42.58.58,0,0,1,.43-.18H102a.54.54,0,0,1,.41.18.61.61,0,0,1,.17.42v4.14c0,.05,0,.08.08.08h4s.06,0,.06-.08V24.61a.62.62,0,0,1,.6-.6h1.83a.54.54,0,0,1,.41.18.61.61,0,0,1,.17.42V36.07a.61.61,0,0,1-.17.42.54.54,0,0,1-.41.18h-1.83a.62.62,0,0,1-.6-.6V31.54c0-.05,0-.07-.06-.07h-4c-.06,0-.08,0-.08.07v4.53a.61.61,0,0,1-.17.42.54.54,0,0,1-.41.18Z" transform="translate(-50.93 -15.24)"/><path class="cls-2" d="M122.07,35.12a5.87,5.87,0,0,1-8.42,0,7,7,0,0,1-1.59-4.85,6.77,6.77,0,0,1,1.58-4.77,6,6,0,0,1,8.44,0,6.81,6.81,0,0,1,1.58,4.77A7,7,0,0,1,122.07,35.12Zm-6.18-1.91a2.33,2.33,0,0,0,3.94,0,5.15,5.15,0,0,0,.73-2.93,4.88,4.88,0,0,0-.73-2.86,2.39,2.39,0,0,0-3.94,0,5,5,0,0,0-.71,2.86A5.33,5.33,0,0,0,115.89,33.21Z" transform="translate(-50.93 -15.24)"/><path class="cls-2" d="M126.58,36.67a.58.58,0,0,1-.42-.18.57.57,0,0,1-.17-.42V24.61a.57.57,0,0,1,.17-.42.58.58,0,0,1,.42-.18h3.84a8.59,8.59,0,0,1,2,.21,5,5,0,0,1,1.6.67,3.14,3.14,0,0,1,1.12,1.29,4.52,4.52,0,0,1,.39,1.95,4.43,4.43,0,0,1-.4,1.94A3.58,3.58,0,0,1,134,31.44a5,5,0,0,1-1.58.77,6.91,6.91,0,0,1-1.92.25h-1.39a.08.08,0,0,0-.09.09v3.52a.6.6,0,0,1-.16.42.54.54,0,0,1-.42.18ZM129,30c0,.06,0,.08.09.08h1.24c1.46,0,2.19-.64,2.19-1.94a1.5,1.5,0,0,0-.56-1.32,3,3,0,0,0-1.71-.39h-1.16c-.06,0-.09,0-.09.07Z" transform="translate(-50.93 -15.24)"/><path class="cls-2" d="M72,21.91a8.43,8.43,0,1,0,8.43,8.43A8.44,8.44,0,0,0,72,21.91Zm0,15.68a7.26,7.26,0,1,1,7.25-7.25A7.26,7.26,0,0,1,72,37.59Z" transform="translate(-50.93 -15.24)"/><path class="cls-2" d="M72,24.37a6,6,0,1,0,6,6A6,6,0,0,0,72,24.37Zm1.91,8.56a2.09,2.09,0,0,1-1.23.64l0,.62a.4.4,0,0,1-.15.29.44.44,0,0,1-.3.1h-.46a.42.42,0,0,1-.3-.13.41.41,0,0,1-.13-.3l0-.55A3.68,3.68,0,0,1,69.76,33a.36.36,0,0,1-.18-.29h0v0a.48.48,0,0,1,.08-.27l.4-.51a.37.37,0,0,1,.29-.16.45.45,0,0,1,.32.07,2.27,2.27,0,0,0,1.15.41h.07a.77.77,0,0,0,.48-.11.38.38,0,0,0,.16-.35.32.32,0,0,0-.11-.26,1.48,1.48,0,0,0-.35-.28l-.52-.27L71,30.58a3.85,3.85,0,0,1-.55-.39,1.68,1.68,0,0,1-.41-.54,1.49,1.49,0,0,1-.14-.7,1.87,1.87,0,0,1,.49-1.25,2.07,2.07,0,0,1,1.19-.61l0-.6a.37.37,0,0,1,.15-.3.48.48,0,0,1,.29-.1l.46,0a.48.48,0,0,1,.31.12.4.4,0,0,1,.13.31l0,.57a2.76,2.76,0,0,1,1.27.65.4.4,0,0,1,.15.3.46.46,0,0,1-.13.31l-.42.4a.46.46,0,0,1-.31.13h0a.54.54,0,0,1-.31-.09,1.45,1.45,0,0,0-.81-.3h-.07a.69.69,0,0,0-.42.1.37.37,0,0,0-.15.33.31.31,0,0,0,.08.21.75.75,0,0,0,.27.21l.43.23.5.24a3.29,3.29,0,0,1,.52.29,4.23,4.23,0,0,1,.45.37,1.65,1.65,0,0,1,.33.52,1.51,1.51,0,0,1,.11.65A1.94,1.94,0,0,1,73.88,32.93Z" transform="translate(-50.93 -15.24)"/></svg>