<svg xmlns="http://www.w3.org/2000/svg" viewBox="0 0 23.31 23.31"><defs><style>.cls-1{fill:#3e3a39;}.cls-2{fill:#f8f8f8;}</style></defs><title>資產 8</title><g id="圖層_2" data-name="圖層 2"><g id="圖層_1-2" data-name="圖層 1"><path class="cls-1" d="M11.66,23.31A11.66,11.66,0,1,1,23.31,11.66,11.67,11.67,0,0,1,11.66,23.31Zm0-22.83A11.18,11.18,0,1,0,22.83,11.66,11.19,11.19,0,0,0,11.66.48Z"/><path class="cls-1" d="M21.45,11.66a9.8,9.8,0,1,1-9.79-9.8A9.79,9.79,0,0,1,21.45,11.66Z"/><path class="cls-2" d="M6.88,15.59a6.42,6.42,0,0,0,9.88-5.7,4.49,4.49,0,0,0,1.13-1.17,4.4,4.4,0,0,1-1.3.36,2.26,2.26,0,0,0,1-1.25,4.48,4.48,0,0,1-1.44.55,2.25,2.25,0,0,0-3.84,2.06A6.45,6.45,0,0,1,7.65,8.08a2.25,2.25,0,0,0,.7,3,2.19,2.19,0,0,1-1-.28,2.25,2.25,0,0,0,1.81,2.24,2.19,2.19,0,0,1-1,0,2.25,2.25,0,0,0,2.11,1.57A4.53,4.53,0,0,1,6.88,15.59Z"/></g></g></svg>