<svg xmlns="http://www.w3.org/2000/svg" viewBox="0 0 22.94 22.94"><defs><style>.cls-1{fill:#595757;}.cls-2{fill:#3e3a39;}.cls-3{fill:#f8f8f8;fill-rule:evenodd;}</style></defs><title>資產 7</title><g id="圖層_2" data-name="圖層 2"><g id="圖層_1-2" data-name="圖層 1"><path class="cls-1" d="M11.47,22.94A11.47,11.47,0,1,1,22.94,11.47,11.48,11.48,0,0,1,11.47,22.94Zm0-22.47a11,11,0,1,0,11,11A11,11,0,0,0,11.47.47Z"/><path class="cls-2" d="M21.11,11.47a9.64,9.64,0,1,1-9.64-9.64A9.63,9.63,0,0,1,21.11,11.47Z"/><path class="cls-3" d="M16.45,14.11c-.26-.15-1.55-.89-1.79-1s-.42-.16-.62.09a11.38,11.38,0,0,1-.92,1c-.17.18-.32.18-.59,0a7.12,7.12,0,0,1-2.08-1.47,7.46,7.46,0,0,1-1.38-1.94c-.14-.28,0-.41.15-.54l.44-.44.1-.12c.07-.1.12-.19.19-.31a.47.47,0,0,0,0-.47c-.06-.14-.51-1.49-.7-2s-.42-.48-.58-.49l-.52,0a1,1,0,0,0-.74.28A3.07,3.07,0,0,0,6.33,8.82a3.16,3.16,0,0,0,.09.92,6.19,6.19,0,0,0,.84,1.92A11.11,11.11,0,0,0,11.61,16c2.67,1.24,2.7.88,3.19.87a2.71,2.71,0,0,0,1.9-1.16A2.22,2.22,0,0,0,17,14.45C16.89,14.33,16.71,14.26,16.45,14.11Z"/></g></g></svg>