<svg id="圖層_1" data-name="圖層 1" xmlns="http://www.w3.org/2000/svg" viewBox="0 0 183.73 43.07"><defs><style>.cls-1{fill:#fff;}.cls-2{fill:#3e3a39;}.cls-3{fill:#f1eeea;}.cls-4{fill:#231815;}</style></defs><title>logo</title><path class="cls-1" d="M190.34,8.72H9.54a1.08,1.08,0,0,0-1.15,1v.9a1.08,1.08,0,0,0,1.15,1h180.8a1.16,1.16,0,0,0,1.27-1v-.9A1.16,1.16,0,0,0,190.34,8.72Z" transform="translate(-8.13 -8.46)"/><path class="cls-2" d="M190.34,11.86H9.54a1.34,1.34,0,0,1-1.41-1.25v-.9A1.34,1.34,0,0,1,9.54,8.46h180.8a1.41,1.41,0,0,1,1.53,1.25v.9A1.41,1.41,0,0,1,190.34,11.86ZM9.54,9a.83.83,0,0,0-.89.73v.9a.83.83,0,0,0,.89.73h180.8c.55,0,1-.33,1-.73v-.9c0-.4-.45-.73-1-.73Z" transform="translate(-8.13 -8.46)"/><polygon class="cls-1" points="6.79 0.26 6.36 42.81 33.73 42.81 34.17 0.26 6.79 0.26"/><path class="cls-2" d="M42.12,51.54H14.23v-.26l.44-42.82H42.56v.26ZM14.75,51H41.61L42,9H15.18Z" transform="translate(-8.13 -8.46)"/><polygon class="cls-1" points="42.43 0.26 42.86 42.81 69.36 42.81 69.8 0.26 42.43 0.26"/><path class="cls-2" d="M77.75,51.54h-27v-.26L50.3,8.46H78.2v.26ZM51.25,51h26l.44-42H50.82Z" transform="translate(-8.13 -8.46)"/><polygon class="cls-1" points="78.06 0.26 78.5 42.81 105 42.81 105.44 0.26 78.06 0.26"/><path class="cls-2" d="M113.39,51.54h-27v-.26L85.94,8.46h27.89v.26ZM86.88,51h26l.43-42H86.45Z" transform="translate(-8.13 -8.46)"/><polygon class="cls-1" points="113.69 0.26 114.13 42.81 140.63 42.81 141.07 0.26 113.69 0.26"/><path class="cls-2" d="M149,51.54H122v-.26l-.44-42.82h27.89v.26ZM122.52,51h26l.43-42H122.09Z" transform="translate(-8.13 -8.46)"/><polygon class="cls-1" points="176.7 0.26 149.33 0.26 149.76 42.81 177.14 42.81 176.7 0.26"/><path class="cls-2" d="M185.53,51.54H157.64v-.26L157.2,8.46h27.89v.26ZM158.15,51H185l-.43-42H157.72Z" transform="translate(-8.13 -8.46)"/><rect class="cls-3" x="19.87" y="10.92" width="0.09" height="0.07"/><rect class="cls-4" x="19.61" y="10.66" width="0.6" height="0.59"/><polygon class="cls-2" points="18.29 14.63 22.66 14.63 22.51 26.07 16.2 26.55 15.86 22.37 18.52 22.46 18.29 14.63"/><polygon class="cls-2" points="12.74 16.41 16.32 17.14 15.37 22.36 15.37 22.36 14.84 25.29 10.8 24.06 12.74 16.41"/><polygon class="cls-2" points="13.32 33.88 12.51 29.35 27.24 25.84 28.24 29.65 13.32 33.88"/><polygon class="cls-2" points="25.47 25.29 24.07 17.13 27.98 16.24 29.72 24.02 25.47 25.29"/><path class="cls-2" d="M23.76,17.07h.95l0,2.17h.83l0-.68.9.05-.1,1.46H23.8Z" transform="translate(-8.13 -8.46)"/><path class="cls-2" d="M28.92,18h.74v.74h-.74v.13l.77.5-.35.73-.42-.33v.41H27.27V18.69h.85v-1h.8Zm-.8,1.4H28v.07h.09Z" transform="translate(-8.13 -8.46)"/><path class="cls-2" d="M32,17l.18.75-.17.06h1l.06,1.86-1.76.53-.24-.91,1.11-.32,0-.31-1.75.05v-.88h.95l-.27-.6Z" transform="translate(-8.13 -8.46)"/><path class="cls-2" d="M73.71,38.89V35.22L68,35.34V33l4.7.15V29.66l-4.7.06V28l5.28.1,0-3.81-11.06.11.5-1.06L57.16,23l-2.29,8.12,1.87.71,0,3.46-1.93,0v3.45l8.79,0-.2,3.13h4.66l-.11-3.14ZM63.57,35.34l-2.51-.06,0-2.28h2.49Zm0-5.62H60.15l.77-1.7h2.65Z" transform="translate(-8.13 -8.46)"/><rect class="cls-3" x="55.53" y="10.84" width="0.07" height="0.09"/><rect class="cls-4" x="55.28" y="10.58" width="0.58" height="0.61"/><path class="cls-2" d="M62.92,20.13h-.87v-.61l-.28.12-.17-.83.45-.14v-.42h-.43v-.87l.43,0V17h.87v.42h1.59v1.16l.15,0,0,.73h-.13v.82H63V18.57h.67v-.32h-.72Zm.79-.73v-.09h-.07v.09Z" transform="translate(-8.13 -8.46)"/><path class="cls-2" d="M66.31,17v1.56l.72-.44.37.86.55-.27.34.86L67,20.12l-.32-.76-1.19.69V17Z" transform="translate(-8.13 -8.46)"/><path class="cls-2" d="M103.44,27.58v.28l.19-.74H105l-.24,2.33-1.23-.23.13,3.73,5.43.08.32-9.87H98.2v4H99.5l-2.15,5.37,3.17,1.41H98.18v8h10.89v-8l-7.09,0Zm-1,9.67h2.39v1.31h-2.39Z" transform="translate(-8.13 -8.46)"/><rect class="cls-3" x="91.35" y="10.91" width="0.09" height="0.07"/><rect class="cls-4" x="91.1" y="10.65" width="0.6" height="0.58"/><polygon class="cls-2" points="87.78 26.7 87.78 33.5 82.4 33.42 82.44 28.98 83.36 29.09 83.36 27.32 82.41 27.52 82.25 23.39 83.36 23.22 83.36 20.47 82.24 20.55 82.24 16.68 83.37 16.75 83.29 14.52 87.86 14.52 87.76 16.75 89.05 16.67 89.05 20.55 87.78 20.47 87.78 22.61 88.72 22.41 88.8 23.84 88.78 23.84 88.82 24.2 88.86 24.9 88.89 24.82 89.06 26.45 87.78 26.7"/><path class="cls-2" d="M95.21,17.06h1l0,2.17H97l0-.68.91.05-.1,1.46h-2.6Z" transform="translate(-8.13 -8.46)"/><path class="cls-2" d="M100.36,18h.74v.74h-.74v.13l.78.5-.36.72-.42-.32v.41H98.71V18.68h.86v-1h.79Zm-.79,1.4h-.09v.07h.09Z" transform="translate(-8.13 -8.46)"/><path class="cls-2" d="M103.45,17l.18.75-.17.06h1l.06,1.86-1.77.53-.23-.91,1.11-.31,0-.32-1.75.05v-.88h1l-.27-.6Z" transform="translate(-8.13 -8.46)"/><path class="cls-2" d="M145.06,31.72V28l-4.51.08.06-1,3.65.09V23.79l-3.7.08.08-.94h-4.5l.08,1-2.91-.1,0,3.43,2.9-.07v1L132.12,28l-2-1.1L133,23.75l-4-.79-2.84,3.47,1.83,3,1.4-1.58.49.4L126,33.39l.34,5.26,1-1.33-.12,4.6h4.31l-.09-8.37,1.4-2.25v.44l6.5-.08v1.08l-6.5-.08v3.63l2.16-.11L132.81,38l3.35,3.21,1.07-1.71.21,2.37,6.36.07V36.21l1.26.07v-3.6l-1.26.08V31.64Zm-5.74,6.36-1.5-.09.39-.59L135,36.23h4.36Z" transform="translate(-8.13 -8.46)"/><path class="cls-2" d="M132.12,18.12l0-.79.48,0,0-.31.92,0,0,.24,1.26-.06,0,.77-1.45.06L133,20.16l-.93-.21.41-1.85Zm1.27,1.06,1.64.22-.08.73-1.66-.2Zm.14-1.13,1.54,0,0,.74-1.56-.06Z" transform="translate(-8.13 -8.46)"/><path class="cls-2" d="M136.81,17.2l.12,1.74.63-.13.17.87-1.64.24-.23-2.62Zm1.7,0,.45,2.23-1,.18-.39-2.23Z" transform="translate(-8.13 -8.46)"/><path class="cls-2" d="M180.91,29.69l-4.95.06.22-1.92,4.68-.26L180.35,23l-7.76,1.28L171.73,32l-.63,0,0-4.44h-8.6v8.14l-.66,5.66,4,.7.41-6.13H171l-1,5.22,4.61.83.94-8.43,1,0L176.42,42h3.81l-.06-8.24.74.08Zm-13.12,2.67h-1.43V31.05h1.43Z" transform="translate(-8.13 -8.46)"/><rect class="cls-3" x="164.57" y="10.91" width="0.09" height="0.07"/><rect class="cls-4" x="164.31" y="10.65" width="0.6" height="0.59"/><polygon class="cls-2" points="154.18 14.88 163.2 14.89 163.2 17.96 154.18 17.96 154.18 14.88"/><path class="cls-2" d="M168.4,17.07h.95l0,2.16h.83l0-.68.9.05-.1,1.47h-2.59Zm1.84.59a.24.24,0,0,1-.14-.12.31.31,0,0,1,0-.25.27.27,0,0,1,.39-.11.35.35,0,0,0,.05.42A.24.24,0,0,1,170.24,17.66Zm.29-.32a.27.27,0,0,1,.08-.19.3.3,0,0,1,.2-.08.27.27,0,0,1,.27.27.3.3,0,0,1-.08.2.27.27,0,0,1-.19.08.27.27,0,0,1-.28-.28Z" transform="translate(-8.13 -8.46)"/><path class="cls-2" d="M173.56,18h.74v.74h-.74v.13l.78.49-.36.73-.42-.32v.4h-1.65V18.68h.85v-1h.8Zm-.8,1.39h-.09v.08h.09Z" transform="translate(-8.13 -8.46)"/></svg>